<svg width="942" height="825" viewBox="0 0 942 825" fill="none" xmlns="http://www.w3.org/2000/svg">
<g id="undraw_businesswoman_pc12 1" clip-path="url(#clip0)">
<path id="Vector" opacity="0.1" d="M705.632 809.266C708.833 786.08 553.481 745.48 358.643 718.583C163.806 691.685 3.26429 688.677 0.0634723 711.863C-3.13735 735.048 152.215 775.649 347.052 802.546C541.889 829.443 702.431 832.452 705.632 809.266Z" fill="#6C63FF"/>
<g id="Vector_2" opacity="0.1" filter="url(#filter0_d)">
<path d="M20.35 568.89C26.76 584.34 35.17 599.15 46.94 610.51C61.28 624.35 79.09 631.9 98.16 635.51C103.782 636.558 109.457 637.292 115.16 637.71C130.23 638.87 145.66 638.1 160.46 636.49C196.711 632.532 232.463 624.883 267.16 613.66C272.86 611.82 278.527 609.883 284.16 607.85C292.66 604.803 301.083 601.533 309.43 598.04C343.43 583.83 378.58 565.71 414.75 571.33C432.28 574.06 448.75 582.33 466.32 584.79C478.651 586.41 491.182 585.519 503.16 582.17C508.959 580.619 514.64 578.657 520.16 576.3C532.602 570.89 544.441 564.187 555.48 556.3C581.98 537.78 605.76 514.82 633.66 498.78C664.42 481.09 698.47 472.68 733.16 466.41C738.813 465.39 744.48 464.417 750.16 463.49C766.21 460.84 782.3 458.39 798.16 455.49C813.44 452.67 828.99 449.22 842.29 440.74C851.78 434.74 859.76 426.31 867.08 417.48C880.583 401.118 892.166 383.261 901.6 364.26C902.1 363.26 902.59 362.26 903.07 361.26C917.76 331.12 927.64 298.26 933.7 264.26C933.88 263.26 934.05 262.26 934.22 261.26C939.92 227.93 942 193.47 941.37 159.26L941.31 156.26C940.92 139.37 939.87 122.55 938.31 105.97C937.19 94.31 935.69 82.21 929.65 72.41C923.61 62.61 913.78 56.31 903.94 51.07C860.64 28 819.13 21.58 772.55 32.76C765.07 34.55 757.62 36.48 750.17 38.48C744.5 40 738.83 41.57 733.17 43.15C694.04 54.06 655.01 65.67 614.56 69.15C610.647 69.49 606.737 69.75 602.83 69.93C595.09 70.29 587.35 70.37 579.61 70.17C559.672 69.6104 539.804 67.5647 520.17 64.05C514.49 63.07 508.823 61.9833 503.17 60.79C478.75 55.7 454.58 48.91 430.75 41.41C425.89 39.8767 421.037 38.3167 416.19 36.73C405.27 33.16 394.35 29.52 383.41 25.98C350.75 15.41 317.93 5.72001 284.16 1.82001C281.267 1.49335 278.373 1.20335 275.48 0.950015C272.71 0.710015 269.93 0.520015 267.16 0.380015C214.71 -2.41998 161.66 10.23 115.16 36.12C109.387 39.3333 103.72 42.7467 98.16 46.36C90.4467 51.38 82.97 56.78 75.73 62.56C60.89 74.41 47 87.9 36.42 104.11C26.11 119.9 19.42 137.63 15.57 156.27C15.36 157.27 15.16 158.27 14.98 159.27C9.33002 189.36 11.09 221.63 17.43 251.78C18.1 254.94 18.81 258.11 19.55 261.27C19.78 262.27 20.02 263.27 20.26 264.27C27.1 292.78 35.84 321.21 33.56 350.36C33.27 354.03 32.81 357.67 32.21 361.27C32.04 362.27 31.87 363.27 31.68 364.27C27.22 388.05 17.08 410.61 11 434.16C-0.412757 478.911 2.86522 526.145 20.35 568.89Z" fill="url(#paint0_linear)"/>
<path d="M115.197 637.211L115.198 637.211C130.227 638.368 145.624 637.601 160.406 635.993C196.623 632.039 232.342 624.396 267.006 613.184L267.16 613.66L267.006 613.184C272.701 611.346 278.362 609.411 283.99 607.38L283.991 607.379C292.483 604.336 300.898 601.069 309.237 597.579C313.434 595.825 317.652 594.009 321.89 592.185C334.795 586.632 347.886 580.997 361.124 576.772C378.722 571.156 396.636 568.009 414.827 570.836L414.75 571.33L414.827 570.836C423.425 572.175 431.764 574.839 440.057 577.489L440.672 577.685C449.182 580.403 457.653 583.072 466.389 584.295C478.652 585.905 491.114 585.019 503.025 581.689L503.031 581.687C508.806 580.142 514.463 578.189 519.961 575.841C532.371 570.446 544.179 563.759 555.189 555.893L555.194 555.89C565.595 548.621 575.575 540.668 585.564 532.708C588.284 530.541 591.005 528.373 593.735 526.218C606.483 516.155 619.427 506.386 633.411 498.347C664.247 480.613 698.366 472.191 733.071 465.918L733.16 466.41L733.071 465.918C738.727 464.898 744.396 463.924 750.078 462.997C754.86 462.207 759.644 461.436 764.422 460.665C775.692 458.847 786.936 457.034 798.069 454.998C813.349 452.178 828.812 448.741 842.021 440.318L842.023 440.317C851.445 434.36 859.385 425.979 866.695 417.161C880.174 400.828 891.735 383.004 901.152 364.038L901.153 364.036C901.652 363.039 902.14 362.041 902.619 361.044L902.62 361.041C917.287 330.95 927.154 298.135 933.208 264.172L933.208 264.171C933.387 263.174 933.557 262.177 933.727 261.176C939.421 227.882 941.5 193.453 940.87 159.269L940.81 156.272C940.42 139.395 939.371 122.586 937.812 106.017M115.197 637.211L938.31 105.97M115.197 637.211C109.512 636.795 103.856 636.063 98.253 635.019M115.197 637.211L115.16 637.71C109.457 637.292 103.782 636.558 98.16 635.51M937.812 106.017L938.31 105.97M937.812 106.017C937.812 106.017 937.812 106.017 937.812 106.018L938.31 105.97M937.812 106.017C936.691 94.3456 935.195 82.3597 929.224 72.6723C923.259 62.993 913.533 56.7449 903.705 51.5113L903.94 51.07C913.78 56.31 923.61 62.61 929.65 72.41C935.69 82.21 937.19 94.31 938.31 105.97M98.16 635.51L98.253 635.019M98.16 635.51C79.09 631.9 61.28 624.35 46.94 610.51C35.17 599.15 26.76 584.34 20.35 568.89L98.16 635.51ZM98.253 635.019C79.2521 631.422 61.5399 623.906 47.2873 610.15C35.5855 598.856 27.208 584.115 20.8119 568.698M98.253 635.019L20.8119 568.698M20.8119 568.698C3.36856 526.053 0.0984826 478.93 11.4842 434.285C14.0271 424.435 17.2811 414.761 20.5379 405.077C21.1675 403.205 21.7972 401.333 22.4219 399.459C26.275 387.901 29.9345 376.289 32.1713 364.363C32.3622 363.358 32.5329 362.354 32.7027 361.355L32.703 361.354L32.7032 361.352C33.3054 357.739 33.7672 354.085 34.0585 350.399L34.0585 350.399C36.0117 325.427 29.9041 300.978 23.8265 276.649C22.7853 272.481 21.745 268.316 20.7462 264.153L20.26 264.27L20.7462 264.153C20.5061 263.153 20.2667 262.155 20.0373 261.158L20.0369 261.156C19.2976 257.999 18.5884 254.833 17.9191 251.676C11.5894 221.575 9.83631 189.373 15.4714 159.362L15.4721 159.359C15.651 158.365 15.85 157.37 16.0594 156.373L16.0597 156.371C19.8993 137.782 26.5685 120.112 36.8387 104.383L36.8387 104.383C47.3794 88.2336 61.2258 74.7817 76.042 62.9508C83.2694 57.1808 90.7329 51.7904 98.4325 46.7793C103.983 43.1721 109.64 39.7647 115.403 36.5569L115.403 36.5569C161.824 10.7112 214.78 -1.91551 267.133 0.879306L267.135 0.879378C269.899 1.01907 272.673 1.20865 275.436 1.44811C278.325 1.70104 281.214 1.99057 284.103 2.31671C317.82 6.21061 350.6 15.8869 383.256 26.4557L383.41 25.98L383.256 26.4557C389.859 28.5923 396.452 30.7646 403.044 32.9364C407.374 34.363 411.704 35.7893 416.034 37.2052C420.883 38.7924 425.738 40.353 430.6 41.8868L430.6 41.887C454.439 49.3897 478.625 56.1847 503.067 61.2792C508.726 62.4738 514.398 63.5615 520.084 64.5425C539.741 68.0614 559.634 70.1095 579.596 70.6698L579.597 70.6698C587.349 70.8702 595.101 70.79 602.853 70.4295C606.766 70.2492 610.683 69.9887 614.603 69.6482C651.92 66.4377 688.028 56.3174 724.065 46.2166C727.145 45.3534 730.225 44.4903 733.304 43.6316L20.8119 568.698Z" stroke="black"/>
</g>
<path id="Vector_3" opacity="0.1" d="M98.16 261.27H19.55C19.78 262.27 20.02 263.27 20.26 264.27H98.16V361.27H32.21C32.04 362.27 31.87 363.27 31.68 364.27H98.16V635.5C103.782 636.548 109.457 637.282 115.16 637.7V364.27H267.16V613.65C272.86 611.81 278.527 609.873 284.16 607.84V364.27H503.16V582.16C508.959 580.609 514.64 578.647 520.16 576.29V364.29H733.16V466.41C738.813 465.39 744.48 464.417 750.16 463.49V364.27H901.62C902.12 363.27 902.61 362.27 903.09 361.27H750.16V264.27H933.75C933.93 263.27 934.1 262.27 934.27 261.27H750.16V159.27H941.39L941.33 156.27H750.16V38.49C744.49 40.01 738.82 41.58 733.16 43.16V156.27H525.16L524.64 155.7L602.8 69.93C595.06 70.29 587.32 70.37 579.58 70.17L520.16 135.41V64.05C514.48 63.07 508.813 61.9833 503.16 60.79V132.11L416.23 36.72C405.31 33.15 394.39 29.51 383.45 25.97L501.66 155.7L501.14 156.27H284.14V1.82C281.247 1.49334 278.353 1.20334 275.46 0.950005C272.69 0.710005 269.91 0.520005 267.14 0.380005V156.27H115.14V36.12C109.367 39.3333 103.7 42.7467 98.14 46.36V156.27H15.57C15.36 157.27 15.16 158.27 14.98 159.27H98.16V261.27ZM267.16 159.27V261.27H115.16V159.27H267.16ZM284.16 159.27H503.16V261.27H284.16V159.27ZM733.16 261.27H520.16V162L523.16 159.27H733.16V261.27ZM520.16 361.27V264.27H733.16V361.27H520.16ZM284.16 361.27V264.27H503.16V361.27H284.16ZM115.16 264.27H267.16V361.27H115.16V264.27Z" fill="#6C63FF"/>
<g id="plane">
<path id="Vector_4" opacity="0.1" d="M537.94 187.41C539.222 186.3 540.711 185.454 542.32 184.92C545.922 183.807 549.703 183.396 553.46 183.71C556.211 183.86 558.944 184.241 561.63 184.85L687.27 220.41C689.64 221.08 691.97 221.87 694.27 222.75C702.37 219.58 725.27 210.4 727.78 207.12L737.62 210L721.2 234.51C721.612 234.692 721.961 234.994 722.199 235.376C722.438 235.759 722.557 236.204 722.539 236.654C722.522 237.105 722.37 237.54 722.103 237.903C721.835 238.266 721.465 238.54 721.04 238.69C702.11 245.2 673.52 236.57 673.52 236.57L563.75 205.21C563.75 205.21 530.58 194.01 537.94 187.41Z" fill="#6C63FF"/>
<path id="Vector_5" opacity="0.1" d="M684.014 226.952C684.29 226.113 684.106 225.298 683.602 225.132C683.099 224.966 682.467 225.512 682.19 226.352C681.914 227.191 682.098 228.006 682.602 228.172C683.106 228.337 683.738 227.791 684.014 226.952Z" fill="#6C63FF"/>
<path id="Vector_6" opacity="0.1" d="M680.215 225.7C680.492 224.861 680.307 224.046 679.804 223.88C679.3 223.715 678.668 224.261 678.392 225.1C678.115 225.939 678.3 226.754 678.803 226.92C679.307 227.086 679.939 226.54 680.215 225.7Z" fill="#6C63FF"/>
<path id="Vector_7" opacity="0.1" d="M672.901 223.29C673.177 222.451 672.993 221.636 672.489 221.47C671.985 221.305 671.353 221.851 671.077 222.69C670.801 223.529 670.985 224.344 671.489 224.51C671.992 224.676 672.624 224.13 672.901 223.29Z" fill="#6C63FF"/>
<path id="Vector_8" opacity="0.1" d="M652.29 217.235C652.566 216.396 652.382 215.581 651.878 215.415C651.375 215.25 650.743 215.796 650.466 216.635C650.19 217.474 650.374 218.289 650.878 218.455C651.381 218.621 652.014 218.075 652.29 217.235Z" fill="#6C63FF"/>
<path id="Vector_9" opacity="0.1" d="M648.655 216.048C648.931 215.209 648.747 214.394 648.244 214.228C647.74 214.062 647.108 214.608 646.831 215.448C646.555 216.287 646.739 217.102 647.243 217.268C647.747 217.433 648.379 216.887 648.655 216.048Z" fill="#6C63FF"/>
<path id="Vector_10" opacity="0.1" d="M644.904 215.164C645.18 214.325 644.996 213.51 644.492 213.344C643.988 213.179 643.356 213.725 643.08 214.564C642.804 215.403 642.988 216.218 643.492 216.384C643.995 216.55 644.627 216.004 644.904 215.164Z" fill="#6C63FF"/>
<path id="Vector_11" opacity="0.1" d="M641.124 213.927C641.4 213.088 641.216 212.273 640.712 212.107C640.209 211.941 639.576 212.488 639.3 213.327C639.024 214.166 639.208 214.981 639.712 215.147C640.215 215.313 640.848 214.767 641.124 213.927Z" fill="#6C63FF"/>
<path id="Vector_12" opacity="0.1" d="M637.418 212.7C637.695 211.861 637.51 211.046 637.007 210.88C636.503 210.715 635.871 211.261 635.595 212.1C635.318 212.939 635.503 213.754 636.006 213.92C636.51 214.086 637.142 213.54 637.418 212.7Z" fill="#6C63FF"/>
<path id="Vector_13" opacity="0.1" d="M634.05 211.594C634.327 210.755 634.142 209.94 633.639 209.774C633.135 209.608 632.503 210.155 632.226 210.994C631.95 211.833 632.134 212.648 632.638 212.814C633.142 212.98 633.774 212.434 634.05 211.594Z" fill="#6C63FF"/>
<path id="Vector_14" opacity="0.1" d="M630.444 210.402C630.721 209.562 630.536 208.747 630.033 208.582C629.529 208.416 628.897 208.962 628.621 209.801C628.344 210.641 628.529 211.455 629.032 211.621C629.536 211.787 630.168 211.241 630.444 210.402Z" fill="#6C63FF"/>
<path id="Vector_15" opacity="0.1" d="M626.675 209.164C626.951 208.325 626.767 207.51 626.263 207.344C625.759 207.179 625.127 207.725 624.851 208.564C624.575 209.403 624.759 210.218 625.262 210.384C625.766 210.55 626.398 210.004 626.675 209.164Z" fill="#6C63FF"/>
<path id="Vector_16" opacity="0.1" d="M623.325 208.063C623.602 207.224 623.417 206.409 622.914 206.243C622.41 206.077 621.778 206.623 621.502 207.463C621.225 208.302 621.41 209.117 621.913 209.283C622.417 209.448 623.049 208.902 623.325 208.063Z" fill="#6C63FF"/>
<path id="Vector_17" opacity="0.1" d="M602.639 202.471C602.913 201.632 602.726 200.818 602.223 200.654C601.719 200.489 601.089 201.037 600.815 201.876C600.541 202.715 600.727 203.529 601.231 203.694C601.734 203.858 602.365 203.311 602.639 202.471Z" fill="#6C63FF"/>
<path id="Vector_18" opacity="0.1" d="M597.268 200.809C597.544 199.97 597.36 199.155 596.856 198.989C596.352 198.823 595.72 199.369 595.444 200.209C595.168 201.048 595.352 201.863 595.856 202.029C596.359 202.194 596.991 201.648 597.268 200.809Z" fill="#6C63FF"/>
<path id="Vector_19" opacity="0.1" d="M593.588 199.596C593.864 198.757 593.68 197.942 593.176 197.776C592.673 197.611 592.04 198.157 591.764 198.996C591.488 199.835 591.672 200.65 592.176 200.816C592.679 200.982 593.311 200.436 593.588 199.596Z" fill="#6C63FF"/>
<path id="Vector_20" opacity="0.1" d="M590.024 198.429C590.3 197.589 590.116 196.775 589.612 196.609C589.109 196.443 588.476 196.989 588.2 197.829C587.924 198.668 588.108 199.483 588.612 199.648C589.115 199.814 589.748 199.268 590.024 198.429Z" fill="#6C63FF"/>
<path id="Vector_21" opacity="0.1" d="M586.514 197.273C586.79 196.434 586.606 195.619 586.102 195.453C585.599 195.288 584.967 195.834 584.69 196.673C584.414 197.512 584.598 198.327 585.102 198.493C585.605 198.659 586.238 198.113 586.514 197.273Z" fill="#6C63FF"/>
<path id="Vector_22" opacity="0.1" d="M582.552 195.955C582.828 195.116 582.644 194.301 582.14 194.135C581.636 193.969 581.004 194.515 580.728 195.355C580.452 196.194 580.636 197.009 581.139 197.175C581.643 197.341 582.275 196.794 582.552 195.955Z" fill="#6C63FF"/>
<path id="Vector_23" opacity="0.1" d="M600.793 201.969C601.07 201.129 600.885 200.315 600.382 200.149C599.878 199.983 599.246 200.529 598.97 201.368C598.693 202.208 598.878 203.023 599.381 203.188C599.885 203.354 600.517 202.808 600.793 201.969Z" fill="#6C63FF"/>
<path id="Vector_24" opacity="0.1" d="M676.269 224.396C676.545 223.557 676.361 222.742 675.857 222.576C675.353 222.411 674.721 222.957 674.445 223.796C674.169 224.635 674.353 225.45 674.857 225.616C675.36 225.782 675.992 225.236 676.269 224.396Z" fill="#6C63FF"/>
<path id="Vector_25" opacity="0.1" d="M614.147 210.282L617.584 211.131L619.063 205.141L615.626 204.292L614.147 210.282Z" fill="#6C63FF"/>
<path id="Vector_26" opacity="0.1" d="M573.653 198.692L577.09 199.541L578.569 193.551L575.132 192.702L573.653 198.692Z" fill="#6C63FF"/>
<path id="Vector_27" opacity="0.1" d="M557.55 185.21L562.12 186.41L559.84 189.85L553.07 188.17L557.55 185.21Z" fill="#6C63FF"/>
<path id="Vector_28" opacity="0.1" d="M542.32 184.96L552.19 187.53L555.95 185.21L553.46 183.75C549.703 183.436 545.922 183.847 542.32 184.96V184.96Z" fill="#6C63FF"/>
<path id="Vector_29" opacity="0.1" d="M737.62 209.94L721.2 234.53L694.38 222.64C694.38 222.64 724.75 211.06 727.75 207.06L737.62 209.94Z" fill="#6C63FF"/>
<path id="Vector_30" opacity="0.1" d="M618.51 213.63L661.84 225.33L664.4 230.45L618.51 213.63Z" fill="#6C63FF"/>
</g>
<g id="cloud">
<path id="Vector_31" opacity="0.1" d="M188.25 89.03H189.56C189.097 88.7596 188.709 88.3788 188.43 87.9215C188.151 87.4643 187.989 86.945 187.96 86.41V86.41C187.96 84.35 190.49 82.66 193.58 82.66H233C236.09 82.66 238.62 84.35 238.62 86.41C238.62 88.48 236.09 90.17 233 90.17H231.68C232.143 90.4412 232.531 90.8221 232.812 91.2789C233.093 91.7358 233.257 92.2548 233.29 92.79C233.29 94.55 231.45 96.04 228.98 96.44H240.33C243.42 96.44 245.96 98.13 245.96 100.19C245.96 102.25 243.42 103.95 240.33 103.95H200.91C197.82 103.95 195.29 102.26 195.29 100.19C195.29 98.43 197.13 96.95 199.59 96.55H188.25C185.15 96.55 182.62 94.86 182.62 92.79C182.62 90.72 185.15 89.03 188.25 89.03Z" fill="#6C63FF"/>
<path id="Vector_32" opacity="0.1" d="M615.41 124.8H616.75C616.289 124.528 615.901 124.147 615.622 123.69C615.343 123.233 615.181 122.715 615.15 122.18V122.18C615.15 120.11 617.68 118.42 620.77 118.42H660.19C663.28 118.42 665.81 120.11 665.81 122.18C665.81 124.24 663.28 125.93 660.19 125.93H658.87C659.332 126.202 659.72 126.583 660.001 127.04C660.282 127.496 660.446 128.015 660.48 128.55C660.48 130.32 658.64 131.8 656.18 132.2H667.52C670.62 132.2 673.15 133.89 673.15 135.96C673.15 138.03 670.62 139.71 667.52 139.71H628.08C624.98 139.71 622.45 138.02 622.45 135.96C622.45 134.2 624.29 132.71 626.75 132.31H615.41C612.31 132.31 609.78 130.62 609.78 128.55C609.78 126.48 612.31 124.8 615.41 124.8Z" fill="#6C63FF"/>
<path id="Vector_33" opacity="0.1" d="M127.75 277.86H129.07C128.607 277.589 128.218 277.209 127.937 276.752C127.656 276.295 127.492 275.775 127.46 275.24V275.24C127.46 273.17 129.99 271.48 133.08 271.48H172.5C175.59 271.48 178.12 273.17 178.12 275.24C178.12 277.3 175.59 278.99 172.5 278.99H171.18C171.643 279.261 172.032 279.641 172.313 280.098C172.594 280.555 172.758 281.075 172.79 281.61C172.79 283.37 170.95 284.86 168.49 285.26H179.83C182.93 285.26 185.46 286.95 185.46 289.02C185.46 291.09 182.93 292.77 179.83 292.77H140.46C137.36 292.77 134.83 291.08 134.83 289.02C134.83 287.25 136.67 285.77 139.14 285.37H127.75C124.66 285.37 122.12 283.68 122.12 281.61C122.12 279.54 124.75 277.86 127.75 277.86Z" fill="#6C63FF"/>
</g>
<path id="Vector_34" d="M496.97 217.06C496.97 217.06 466.44 217.38 471.64 234.29L483.29 241.05L494.9 238.69L500.35 229.06L496.97 217.06Z" fill="#65617D"/>
<path id="Vector_35" opacity="0.1" d="M496.97 217.06C496.97 217.06 466.44 217.38 471.64 234.29L483.29 241.05L494.9 238.69L500.35 229.06L496.97 217.06Z" fill="black"/>
<path id="Vector_36" d="M430.47 187.59C438.84 218.03 459.25 215.06 459.25 215.06L472.34 230.91L474.27 233.37L478.45 238.69L496.97 228.17L493.28 223.83L471.64 198.41C471.64 198.41 422.1 157.16 430.47 187.59Z" fill="#FBBEBE"/>
<path id="Vector_37" d="M428.604 197.943C428.692 198.07 428.866 198.103 428.994 198.015C429.121 197.928 429.154 197.753 429.066 197.626L426.753 194.253C426.666 194.125 426.491 194.093 426.364 194.18C426.236 194.268 426.204 194.442 426.291 194.57L428.604 197.943Z" fill="#3A3768"/>
<path id="Vector_38" d="M440.503 181.748C440.553 181.821 440.653 181.839 440.726 181.789C440.799 181.739 440.817 181.64 440.767 181.567L440.083 180.569C440.033 180.496 439.933 180.477 439.86 180.527C439.787 180.577 439.769 180.677 439.819 180.75L440.503 181.748Z" fill="#3A3768"/>
<path id="Vector_39" d="M444.422 188.566C444.479 188.648 444.591 188.668 444.672 188.611C444.754 188.555 444.774 188.443 444.717 188.361L443.406 186.475C443.35 186.394 443.238 186.374 443.156 186.43C443.075 186.487 443.054 186.599 443.111 186.68L444.422 188.566Z" fill="#3A3768"/>
<path id="Vector_40" d="M444.76 187.961C444.814 188.039 444.919 188.059 444.997 188.005C445.074 187.952 445.094 187.847 445.041 187.769L443.712 185.831C443.659 185.754 443.553 185.734 443.475 185.787C443.398 185.84 443.378 185.946 443.431 186.023L444.76 187.961Z" fill="#3A3768"/>
<path id="Vector_41" d="M444.961 217.385L456.829 209.247C457.849 208.547 458.109 207.153 457.41 206.132L438.249 178.191C437.549 177.171 436.155 176.911 435.135 177.61L423.267 185.749C422.247 186.448 421.987 187.842 422.687 188.863L441.847 216.804C442.547 217.824 443.941 218.084 444.961 217.385Z" fill="#3A3768"/>
<path id="Vector_42" d="M425.4 185.49C425.549 185.39 425.731 185.353 425.907 185.387C426.083 185.42 426.239 185.522 426.34 185.67L426.42 185.78C426.521 185.928 426.677 186.03 426.853 186.063C427.029 186.097 427.211 186.06 427.36 185.96L433.97 181.43C434.116 181.327 434.216 181.171 434.248 180.995C434.28 180.819 434.241 180.638 434.14 180.49L434.06 180.38C433.96 180.231 433.923 180.049 433.957 179.873C433.99 179.697 434.092 179.541 434.24 179.44L435.52 178.55C435.804 178.358 436.153 178.285 436.49 178.349C436.827 178.413 437.126 178.607 437.32 178.89L456.42 206.75C456.612 207.033 456.684 207.38 456.62 207.715C456.556 208.051 456.362 208.347 456.08 208.54L444.57 216.41C444.287 216.602 443.94 216.674 443.605 216.61C443.269 216.546 442.973 216.352 442.78 216.07L423.67 188.21C423.478 187.927 423.406 187.58 423.47 187.245C423.534 186.909 423.728 186.613 424.01 186.42L425.4 185.49Z" fill="#6C63FF"/>
<path id="Vector_43" d="M429.702 183.382L431.434 182.194C431.557 182.11 431.588 181.942 431.504 181.819C431.42 181.696 431.252 181.665 431.129 181.749L429.397 182.937C429.274 183.021 429.242 183.189 429.327 183.312C429.411 183.435 429.579 183.466 429.702 183.382Z" fill="#E6E8EC"/>
<path id="Vector_44" d="M428.75 184C428.916 184 429.05 183.866 429.05 183.7C429.05 183.534 428.916 183.4 428.75 183.4C428.584 183.4 428.45 183.534 428.45 183.7C428.45 183.866 428.584 184 428.75 184Z" fill="#E6E8EC"/>
<path id="Vector_45" opacity="0.1" d="M374.19 626.23L376.85 622.14C381.794 617.381 387.266 613.204 393.16 609.69C402.4 604.32 404.54 591.69 404.16 589.94C403.78 588.19 405.45 571.94 405.45 571.94V530.68L377.74 527.68C378.84 543.75 380.19 575.19 376.04 597.68C373.75 609.88 373.56 619.29 374.19 626.23Z" fill="black"/>
<path id="Vector_46" opacity="0.1" d="M375.99 718.33L386.08 738.51L397.89 758.05L406.05 768.78C406.05 768.78 412.05 769.64 413.35 768.78C414.65 767.92 419.78 768.78 419.78 768.78L424.51 761.48L419.21 754.31C420.6 757.51 421.74 761.5 418.93 761.69C414.21 762.02 404.44 765.99 398.86 752.57C393.28 739.15 385.86 733.14 385.86 733.14L379.95 718.76L379.57 711.34C379.172 712.145 378.689 712.906 378.13 713.61L375.99 718.33Z" fill="black"/>
<path id="Vector_47" d="M375.24 735.5C375.24 735.5 384.04 757.4 383.72 763.74H388.87L388.01 744.62L388.09 744.73C389.03 745.98 398.23 758.38 398.54 764.59C398.54 764.59 400.87 770.97 400.8 772.72C400.805 772.766 400.805 772.813 400.8 772.86C400.58 774.36 408.95 781.45 421.09 780.05C433.23 778.65 435.36 776.94 435.36 776.94C435.36 776.94 435.5 776.55 435.68 775.94C436.28 773.64 437.25 768.04 433.22 765.27C428.17 761.79 417.64 752.03 417.22 751.66C417.49 752.14 423.54 762.66 418.92 763.01C414.3 763.36 404.43 767.31 398.85 753.89C393.27 740.47 385.85 734.46 385.85 734.46L379.94 720.08L379.5 711.49C379.5 711.49 372.64 715.03 372 722.01C371.36 728.99 375.24 735.5 375.24 735.5Z" fill="#3F3D56"/>
<g id="leg1">
<path id="Vector_48" d="M374.05 624.47C374.05 625.07 374.14 625.65 374.19 626.23C375.19 637.09 378.14 641.89 378.14 641.89C378.14 641.89 381.57 685.89 382.21 697.07C382.62 704.07 380.91 708.79 379.58 711.34C379.182 712.145 378.699 712.906 378.14 713.61L375.99 718.33L386.08 738.51L397.89 758.05L406.05 768.78C406.05 768.78 412.05 769.64 413.35 768.78C414.65 767.92 419.78 768.78 419.78 768.78L424.51 761.48L419.21 754.31L417.21 751.61C415.49 737.22 410.01 717.68 410.01 717.68V688.27C410.01 688.27 412.49 620.86 410.77 609.47C409.708 603.003 409.708 596.407 410.77 589.94C410.77 589.94 418.28 568.68 416.77 566.32C415.26 563.96 419.99 555.58 419.99 555.58L428.99 530.17L429.51 528.68L427.51 523.81L376.85 517.41C376.85 517.41 377.25 521.41 377.69 527.76V527.9C377.95 531.58 378.21 536.06 378.42 541.06C379.12 557.88 379.18 580.46 375.99 597.71C374.238 606.515 373.586 615.504 374.05 624.47V624.47Z" fill="#FBBEBE"/>
<path id="Vector_49" opacity="0.1" d="M382.65 744.3C383.26 749.44 384.77 758.9 385.55 763.74H388.87L388.01 744.62L388.09 744.73L387.8 743.88C387.8 743.88 381.75 737.22 382.65 744.3Z" fill="black"/>
</g>
<path id="Vector_50" opacity="0.1" d="M400.75 772.86C400.53 774.36 408.9 781.45 421.04 780.05C433.18 778.65 435.31 776.94 435.31 776.94C435.31 776.94 435.45 776.55 435.63 775.94C428.07 776.03 407.89 775.94 400.76 772.75C400.76 772.787 400.757 772.824 400.75 772.86Z" fill="black"/>
<path id="Vector_51" opacity="0.1" d="M287.75 729.28L289.9 749.03L300.41 755.25C300.41 755.25 310.08 756.33 308.36 747.74C308.203 746.819 308.15 745.883 308.2 744.95C291.97 750.95 290.33 735.07 290.33 735.07L293.23 691.81C293.183 689.664 293.867 687.566 295.17 685.86C294.551 685.908 293.929 685.851 293.33 685.69L289.46 692.78L287.75 729.28Z" fill="black"/>
<path id="Vector_52" opacity="0.1" d="M268.39 726L269.82 727.02L282.17 712.64L280.77 708.45L268.39 726Z" fill="black"/>
<path id="Vector_53" opacity="0.1" d="M278.14 743.58C278.14 744.94 278.19 745.85 278.19 745.85C278.19 745.85 281.95 753.85 298.48 763.74C305.9 768.17 310.23 767.41 312.74 765.23C305.21 762.9 287.25 756.28 278.14 743.58Z" fill="black"/>
<path id="Vector_54" d="M307.75 509.32C317.3 512.61 323.03 491.95 325.75 478.47C327.01 472.18 327.6 467.47 327.6 467.47H310.02C310.02 467.47 309.02 469.84 307.65 473.47C303.75 484.13 297.3 505.71 307.75 509.32Z" fill="#FBBEBE"/>
<path id="Vector_55" d="M385.43 230.54L397.43 259.73V284.85C397.43 285.5 427.27 293.85 427.27 293.85L435 274.53C435 274.53 437.36 251.77 428.78 232.87C426.054 226.698 425.639 219.752 427.61 213.3C427.75 212.793 427.9 212.293 428.06 211.8C430.13 205.733 433.364 200.128 437.58 195.3C437.58 195.3 417.11 188.51 403.05 187.13C394.2 186.27 387.87 187.55 390.78 194.01C392.556 198.103 393.35 202.555 393.1 207.01C393.1 207.41 393.1 207.82 393.02 208.22C392.14 220.26 385.43 230.54 385.43 230.54Z" fill="#FBBEBE"/>
<path id="Vector_56" opacity="0.1" d="M390.81 194.03C392.586 198.123 393.38 202.575 393.13 207.03C393.13 207.43 393.13 207.84 393.05 208.24C393.072 208.268 393.099 208.292 393.13 208.31C398.196 212.829 404.58 215.601 411.34 216.22C412.27 216.31 413.22 216.35 414.17 216.35C418.827 216.366 423.43 215.341 427.64 213.35C427.78 212.843 427.93 212.343 428.09 211.85C430.16 205.783 433.394 200.178 437.61 195.35C437.61 195.35 417.14 188.56 403.08 187.18C394.23 186.29 387.9 187.57 390.81 194.03Z" fill="black"/>
<path id="Vector_57" d="M381.42 180.71C381.393 185.677 382.423 190.593 384.442 195.131C386.461 199.669 389.422 203.725 393.13 207.03C398.2 211.542 404.582 214.311 411.34 214.93C412.27 215.02 413.22 215.06 414.17 215.06C418.997 215.065 423.761 213.956 428.09 211.82C433.815 208.903 438.612 204.445 441.941 198.948C445.269 193.452 446.997 187.135 446.93 180.71C446.958 173.416 444.725 166.293 440.54 160.32C437.599 156.033 433.665 152.521 429.073 150.084C424.482 147.646 419.368 146.355 414.17 146.32C396.09 146.35 381.42 161.73 381.42 180.71Z" fill="#FBBEBE"/>
<path id="Vector_58" d="M426.23 291.72C426.23 291.72 406.23 273.47 400.68 256.94C397.141 246.617 392.687 236.63 387.37 227.1L388.85 224.01C388.85 224.01 397.03 245.78 403.04 248.35C409.05 250.92 423.04 265.74 424.3 276.05L425.16 244.7L426.51 224.01C426.51 224.01 436.75 245.78 437.61 255.87C438.47 265.96 437.39 284.21 434.17 288.07C433.187 289.213 431.968 290.131 430.598 290.761C429.228 291.391 427.738 291.718 426.23 291.72Z" fill="#6C63FF"/>
<path id="Vector_59" d="M384.37 223.41L384.51 223.28L384.37 223.41Z" stroke="#00FFFF" stroke-miterlimit="10"/>
<path id="Vector_60" opacity="0.1" d="M353.87 525.31C353.87 525.31 354.4 529.97 355.08 535.9C362.16 539.46 370.23 540.9 378.42 541.02C387.075 541.03 395.7 540.003 404.11 537.96C412.586 535.941 420.913 533.338 429.03 530.17L429.55 528.68L427.55 523.81L376.85 517.41C376.85 517.41 377.25 521.41 377.69 527.76V527.9L353.87 525.31Z" fill="black"/>
<path id="Vector_61" d="M345.29 499.01C345.43 499.33 345.58 499.71 345.72 500.12C348.41 508.02 350.44 531.86 350.44 531.86C378.78 551.51 429.34 528.32 432.33 527.67C435.32 527.02 432.33 522.2 432.33 522.2C432.33 522.2 441.9 481.3 440.94 473.89C439.98 466.48 443.19 436.05 443.19 436.05L444.75 423.41L449.04 387.54L416.19 380.46C416.19 380.46 376 384.54 363.19 389.31C362.594 389.525 362.01 389.772 361.44 390.05C357.51 391.99 354 398.4 351.17 405.6C349.44 409.97 347.97 414.6 346.79 418.76C344.746 425.959 343.663 433.397 343.57 440.88C343.29 458.57 343.12 494.19 345.29 499.01Z" fill="#3F3D56"/>
<path id="Vector_62" opacity="0.1" d="M345.29 499.01C345.43 499.33 345.58 499.71 345.72 500.12C347.56 487.38 349.3 448.99 348.94 436.43C348.51 421.43 364.4 389.62 364.4 389.62L363.14 389.35C362.544 389.565 361.96 389.812 361.39 390.09C355.07 393.21 349.85 407.9 346.75 418.8C344.703 425.999 343.617 433.437 343.52 440.92C343.29 458.57 343.12 494.2 345.29 499.01Z" fill="black"/>
<path id="Vector_63" opacity="0.1" d="M351.12 405.64C351.94 406.18 368.56 416.88 396.49 428.81C425.16 441.04 428.27 391.34 428.27 391.34C430.76 395.666 432.606 400.332 433.75 405.19C435.34 411.54 441.58 419.66 444.75 423.45L449.04 387.58L416.19 380.5C416.19 380.5 376 384.58 363.19 389.35C362.594 389.565 362.01 389.812 361.44 390.09C357.46 392.03 353.95 398.41 351.12 405.64Z" fill="black"/>
<path id="Vector_64" d="M334.55 298.41C336.48 302.7 334.55 307.32 334.55 307.32C334.55 307.32 363 331.9 364.4 327.71C365.8 323.52 366.4 334.8 366.4 334.8C366.4 334.8 369.2 337.7 368.56 339.2C367.92 340.7 369.09 349.29 369.09 349.29C369.09 349.29 370.59 354.44 369.52 355.52C368.45 356.6 366.84 365.52 366.84 365.52L363 379.78L362.33 380.34C356.33 385.27 355.56 393.86 353.84 396.01C352.12 398.16 351.06 404.38 351.06 404.38C351.06 404.38 367.8 415.33 396.46 427.57C425.12 439.81 428.24 390.1 428.24 390.1C430.736 394.409 432.592 399.057 433.75 403.9C435.9 412.49 446.53 424.3 446.53 424.3C456.84 422.58 465.63 394.35 463.38 392.74C461.13 391.13 454.75 370.52 454.75 370.52C444.66 356.46 453.75 327.25 453.75 327.25C453.75 327.25 462.98 303.74 462.87 299.88C462.76 296.02 465.02 295.88 465.02 295.88L471.57 251.01C471.57 251.01 462.57 247.25 461.8 244.13C461.03 241.01 448.16 237.59 448.16 237.59C448.16 237.59 449.03 236.3 443.55 234.47C441.627 233.67 439.839 232.577 438.25 231.23C434.066 227.824 430.107 224.15 426.4 220.23C426.4 220.23 425.85 233.01 428.52 240.4C431.19 247.79 433.14 269.62 433.35 271.23C433.56 272.84 425.62 289.69 425.62 289.69L421.41 283.92C414.77 274.84 402.54 258.16 401.69 257.38C400.5 256.31 390.21 227.6 388.78 224.02C388.25 222.71 387.51 222.29 386.78 222.28C386.205 222.295 385.646 222.476 385.17 222.8V222.8C384.92 222.954 384.682 223.128 384.46 223.32L384.21 224.01L384.15 224.15C383.932 224.738 383.678 225.313 383.39 225.87V225.87C376.49 239.41 350.75 249.1 350.75 249.1C342.49 252 341.09 257.87 341.09 257.87C341.09 257.87 342.59 263.06 339.27 265.64C335.95 268.22 337.34 275.3 337.34 275.3C337.34 275.3 332.83 285.5 333.99 287C334.899 288.289 335.695 289.654 336.37 291.08C336.37 291.08 332.62 294.08 334.55 298.41Z" fill="#65617D"/>
<path id="Vector_65" opacity="0.1" d="M417.96 304.28C417.96 304.28 461.87 311.15 459.83 292.28C457.97 275.07 441.83 238.87 438.97 232.57C434.783 229.163 430.822 225.489 427.11 221.57C427.11 221.57 426.57 234.35 429.23 241.74C431.89 249.13 433.85 270.95 434.06 272.56C434.27 274.17 426.33 291.03 426.33 291.03L417.96 304.28Z" fill="black"/>
<path id="Vector_66" opacity="0.1" d="M416.67 303C416.67 303 460.58 309.86 458.54 291C456.68 273.79 440.54 237.59 437.68 231.29C433.496 227.884 429.537 224.21 425.83 220.29C425.83 220.29 425.28 233.07 427.94 240.46C430.6 247.85 432.56 269.68 432.78 271.29C433 272.9 425.05 289.75 425.05 289.75L416.67 303Z" fill="black"/>
<path id="Vector_67" d="M417.32 303C417.32 303 461.22 309.86 459.18 291C457.33 273.79 441.18 237.59 438.32 231.29C434.136 227.884 430.177 224.21 426.47 220.29C426.47 220.29 425.92 233.07 428.59 240.46C431.26 247.85 433.21 269.68 433.42 271.29C433.63 272.9 425.69 289.75 425.69 289.75L417.32 303Z" fill="#65617D"/>
<path id="Vector_68" opacity="0.1" d="M382.14 227.17C382.14 227.3 382.21 229.17 382.3 232.05C382.47 237.61 382.74 247.05 382.88 255.94C383.04 266.24 383.04 275.72 382.54 277.34C381.36 281.1 387.15 290.44 387.15 290.44L416.03 304.28L423.8 291.93L420.19 285.2C413.55 276.12 401.32 259.44 400.47 258.66C400.09 258.32 398.77 255.14 397.12 250.86C393.6 241.77 388.53 227.73 387.56 225.3C387.14 224.484 386.425 223.858 385.56 223.55C385.269 223.497 384.969 223.517 384.687 223.61C384.406 223.702 384.153 223.864 383.95 224.08C383.552 224.475 383.215 224.926 382.95 225.42V225.47C382.654 226.004 382.407 226.562 382.21 227.14L382.14 227.17Z" fill="black"/>
<path id="Vector_69" opacity="0.1" d="M384.08 225.88C384.08 226 384.15 227.88 384.23 230.75C384.4 236.31 384.67 245.75 384.81 254.64C384.98 264.94 384.98 274.42 384.47 276.04C383.29 279.8 389.09 289.14 389.09 289.14L417.96 302.99L425.75 290.64L422.14 283.91C415.5 274.83 403.28 258.15 402.42 257.37C402.04 257.03 400.73 253.85 399.07 249.57C395.55 240.49 390.48 226.44 389.51 224.01C389.089 223.197 388.374 222.574 387.51 222.27C387.22 222.211 386.919 222.227 386.637 222.318C386.355 222.409 386.101 222.572 385.9 222.79C385.5 223.187 385.163 223.642 384.9 224.14C384.603 224.677 384.356 225.239 384.16 225.82L384.08 225.88Z" fill="black"/>
<path id="Vector_70" d="M383.43 225.88C383.43 226 383.5 227.88 383.59 230.75C383.76 236.31 384.02 245.75 384.17 254.64C384.33 264.94 384.33 274.42 383.82 276.04C382.65 279.8 388.44 289.14 388.44 289.14L417.32 302.99L425.08 290.63C425.08 290.63 423.71 288.05 421.48 283.9C414.84 274.82 402.61 258.14 401.76 257.36C401.38 257.02 400.06 253.84 398.41 249.56C394.89 240.48 389.82 226.43 388.85 224C388.431 223.185 387.715 222.563 386.85 222.26C386.56 222.203 386.259 222.22 385.978 222.311C385.696 222.402 385.442 222.564 385.24 222.78V222.78C384.837 223.174 384.499 223.629 384.24 224.13C383.943 224.667 383.696 225.229 383.5 225.81L383.43 225.88Z" fill="#65617D"/>
<path id="Vector_71" opacity="0.1" d="M421.29 313.52C422.627 313.52 423.71 311.644 423.71 309.33C423.71 307.016 422.627 305.14 421.29 305.14C419.953 305.14 418.87 307.016 418.87 309.33C418.87 311.644 419.953 313.52 421.29 313.52Z" fill="black"/>
<path id="Vector_72" d="M421.29 312.87C422.627 312.87 423.71 310.994 423.71 308.68C423.71 306.366 422.627 304.49 421.29 304.49C419.953 304.49 418.87 306.366 418.87 308.68C418.87 310.994 419.953 312.87 421.29 312.87Z" fill="#6C63FF"/>
<path id="Vector_73" opacity="0.1" d="M427.5 358.44C428.837 358.44 429.92 356.564 429.92 354.25C429.92 351.936 428.837 350.06 427.5 350.06C426.163 350.06 425.08 351.936 425.08 354.25C425.08 356.564 426.163 358.44 427.5 358.44Z" fill="black"/>
<path id="Vector_74" opacity="0.1" d="M425.09 334.66C426.427 334.66 427.51 332.784 427.51 330.47C427.51 328.156 426.427 326.28 425.09 326.28C423.753 326.28 422.67 328.156 422.67 330.47C422.67 332.784 423.753 334.66 425.09 334.66Z" fill="black"/>
<path id="Vector_75" opacity="0.1" d="M429.92 378.41C431.257 378.41 432.34 376.534 432.34 374.22C432.34 371.906 431.257 370.03 429.92 370.03C428.583 370.03 427.5 371.906 427.5 374.22C427.5 376.534 428.583 378.41 429.92 378.41Z" fill="black"/>
<path id="Vector_76" d="M427.5 357.8C428.837 357.8 429.92 355.924 429.92 353.61C429.92 351.296 428.837 349.42 427.5 349.42C426.163 349.42 425.08 351.296 425.08 353.61C425.08 355.924 426.163 357.8 427.5 357.8Z" fill="#6C63FF"/>
<path id="Vector_77" d="M425.09 334.02C426.427 334.02 427.51 332.144 427.51 329.83C427.51 327.516 426.427 325.64 425.09 325.64C423.753 325.64 422.67 327.516 422.67 329.83C422.67 332.144 423.753 334.02 425.09 334.02Z" fill="#6C63FF"/>
<path id="Vector_78" d="M429.92 377.77C431.257 377.77 432.34 375.894 432.34 373.58C432.34 371.266 431.257 369.39 429.92 369.39C428.583 369.39 427.5 371.266 427.5 373.58C427.5 375.894 428.583 377.77 429.92 377.77Z" fill="#6C63FF"/>
<path id="Vector_79" d="M377.8 256.35C378.43 255.87 381.35 255.21 384.17 254.65C386.99 254.09 389.87 253.65 389.87 253.65C392.286 251.544 395.245 250.158 398.41 249.65C394.89 240.57 389.82 226.52 388.85 224.09C388.431 223.275 387.715 222.653 386.85 222.35C386.56 222.293 386.259 222.31 385.978 222.401C385.696 222.492 385.442 222.654 385.24 222.87V222.87C384.837 223.264 384.499 223.719 384.24 224.22V224.22L383.65 230.79L383.49 232.55C383.49 232.55 378.82 234.8 379.79 238.55C380.76 242.3 376.51 257.32 377.8 256.35Z" fill="#6C63FF"/>
<path id="Vector_80" opacity="0.1" d="M426.51 224.66C426.51 224.66 442.39 247.49 442.22 252C442.05 256.51 439.65 252 439.65 252C439.65 252 432.94 232.07 425.11 247.17L426.51 224.66Z" fill="black"/>
<path id="Vector_81" d="M426.51 224.01C426.51 224.01 442.39 246.85 442.22 251.36C442.05 255.87 439.65 251.36 439.65 251.36C439.65 251.36 432.94 231.43 425.11 246.52L426.51 224.01Z" fill="#6C63FF"/>
<path id="Vector_82" d="M469.28 253.41L471.64 251.09C471.64 251.09 477.81 253.41 478.75 256.41C479.69 259.41 482.29 258.63 482.29 258.63C483.407 259.213 484.598 259.644 485.83 259.91C486.83 259.91 488.25 264.42 488.25 264.42C488.25 264.42 498.39 267 499.25 267.16C500.11 267.32 539.82 304.23 539.82 304.23C539.82 304.23 516.96 307.74 513.42 306.29C509.88 304.84 506.33 304.59 504.56 304.23C502.79 303.87 462.86 295.34 462.86 295.34L469.28 253.41Z" fill="#65617D"/>
<path id="Vector_83" opacity="0.1" d="M474.27 233.41L478.45 238.73L496.97 228.21L493.28 223.87C489.98 228.88 484.1 234.27 474.27 233.41Z" fill="black"/>
<path id="Vector_84" d="M533.85 302.24L539.8 304.24C539.8 304.24 554.3 302.92 553.33 296.64C552.36 290.36 546.08 278.86 546.08 278.86L537.08 263.47C537.08 263.47 533.53 259.25 533.86 257.9C534.19 256.55 529.67 254.29 529.67 254.29C529.67 254.29 527.09 250.91 526.93 249.29C526.77 247.67 512.27 235.41 512.27 235.41C512.27 235.41 507.27 231.22 508.4 217.05H496.97C496.97 217.05 491.72 238.15 471.64 234.28L499.23 267.13L533.85 302.24Z" fill="#65617D"/>
<path id="Vector_85" opacity="0.1" d="M307.65 473.41C313.122 476.661 319.365 478.387 325.73 478.41C326.99 472.12 327.58 467.41 327.58 467.41H310.02C310.02 467.41 308.98 469.82 307.65 473.41Z" fill="black"/>
<path id="Vector_86" d="M339.65 303L334.55 307.29C334.55 307.29 335.55 309.65 333.81 310.94C332.07 312.23 333.81 322.05 333.81 322.05C333.763 323.371 333.269 324.636 332.41 325.64C330.96 327.36 332.41 344.11 332.41 344.11C332.003 344.943 331.394 345.661 330.64 346.2C329.64 346.68 326.77 362.47 327.58 363.27C328.39 364.07 315.34 402.08 315.34 402.08C315.34 402.08 315.66 408.68 313.89 409.81C312.12 410.94 311.8 418.5 311.8 418.5C311.8 418.5 312.6 425.26 309.38 426.55C306.16 427.84 305.52 450.71 305.52 450.71C305.52 450.71 301.17 462.46 298.59 464.39C298.59 464.39 310.83 481.14 334.5 476.31C334.5 476.31 335.5 455.21 338.36 446.84L346.9 404.17C346.9 404.17 352.05 385.97 353.98 375.99C355.91 366.01 364.4 327.68 364.4 327.68V314L339.65 303Z" fill="#65617D"/>
<path id="Vector_87" opacity="0.1" d="M314.54 422.04C315.164 422.04 315.67 421.033 315.67 419.79C315.67 418.547 315.164 417.54 314.54 417.54C313.916 417.54 313.41 418.547 313.41 419.79C313.41 421.033 313.916 422.04 314.54 422.04Z" fill="black"/>
<path id="Vector_88" opacity="0.1" d="M310.03 441.2C310.654 441.2 311.16 440.193 311.16 438.95C311.16 437.707 310.654 436.7 310.03 436.7C309.406 436.7 308.9 437.707 308.9 438.95C308.9 440.193 309.406 441.2 310.03 441.2Z" fill="black"/>
<path id="Vector_89" opacity="0.1" d="M306.65 458.75C307.274 458.75 307.78 457.743 307.78 456.5C307.78 455.257 307.274 454.25 306.65 454.25C306.026 454.25 305.52 455.257 305.52 456.5C305.52 457.743 306.026 458.75 306.65 458.75Z" fill="black"/>
<path id="Vector_90" opacity="0.1" d="M312.28 431.7C312.904 431.7 313.41 430.693 313.41 429.45C313.41 428.207 312.904 427.2 312.28 427.2C311.656 427.2 311.15 428.207 311.15 429.45C311.15 430.693 311.656 431.7 312.28 431.7Z" fill="black"/>
<path id="Vector_91" opacity="0.1" d="M307.77 450.38C308.394 450.38 308.9 449.373 308.9 448.13C308.9 446.887 308.394 445.88 307.77 445.88C307.146 445.88 306.64 446.887 306.64 448.13C306.64 449.373 307.146 450.38 307.77 450.38Z" fill="black"/>
<path id="Vector_92" d="M314.54 421.4C315.164 421.4 315.67 420.393 315.67 419.15C315.67 417.907 315.164 416.9 314.54 416.9C313.916 416.9 313.41 417.907 313.41 419.15C313.41 420.393 313.916 421.4 314.54 421.4Z" fill="#6C63FF"/>
<path id="Vector_93" d="M310.03 440.56C310.654 440.56 311.16 439.553 311.16 438.31C311.16 437.067 310.654 436.06 310.03 436.06C309.406 436.06 308.9 437.067 308.9 438.31C308.9 439.553 309.406 440.56 310.03 440.56Z" fill="#6C63FF"/>
<path id="Vector_94" d="M306.65 458.11C307.274 458.11 307.78 457.103 307.78 455.86C307.78 454.617 307.274 453.61 306.65 453.61C306.026 453.61 305.52 454.617 305.52 455.86C305.52 457.103 306.026 458.11 306.65 458.11Z" fill="#6C63FF"/>
<path id="Vector_95" d="M312.28 431.06C312.904 431.06 313.41 430.053 313.41 428.81C313.41 427.567 312.904 426.56 312.28 426.56C311.656 426.56 311.15 427.567 311.15 428.81C311.15 430.053 311.656 431.06 312.28 431.06Z" fill="#6C63FF"/>
<path id="Vector_96" d="M307.77 449.74C308.394 449.74 308.9 448.733 308.9 447.49C308.9 446.247 308.394 445.24 307.77 445.24C307.146 445.24 306.64 446.247 306.64 447.49C306.64 448.733 307.146 449.74 307.77 449.74Z" fill="#6C63FF"/>
<path id="Vector_97" opacity="0.1" d="M396.19 334.02C396.19 334.02 378.79 331.02 373.47 334.02C368.15 337.02 396.19 334.02 396.19 334.02Z" fill="black"/>
<path id="Vector_98" opacity="0.1" d="M384.49 351.03C384.49 351.03 375.49 336.38 372.8 341.03C370.11 345.68 384.49 351.03 384.49 351.03Z" fill="black"/>
<path id="Vector_99" opacity="0.1" d="M342.39 367.3C341.91 367.78 322.74 389.68 322.91 391.13C323.08 392.58 342.39 367.3 342.39 367.3Z" fill="black"/>
<g id="hair">
<path id="Vector_100" opacity="0.1" d="M393.13 207.03C392.6 219.55 385.43 230.54 385.43 230.54L397.43 259.73V268.22C405.59 269.08 414.19 267.31 420.13 261.76C415.42 260.22 412.55 255.54 410.36 251.09C407.806 245.864 405.623 240.464 403.83 234.93C402.63 231.22 402.01 226.28 405.31 224.19C406.82 223.19 408.82 223.19 410.22 222.07C412.03 220.62 412.15 217.87 411.53 215.64C411.46 215.4 411.39 215.16 411.31 214.93C409.85 210.59 406.41 207.16 404.31 203.06C401.857 198.117 401.402 192.419 403.04 187.15C403.574 185.384 404.351 183.701 405.35 182.15C407.363 179.09 410.128 176.597 413.379 174.91C416.63 173.222 420.259 172.396 423.92 172.51C425.79 172.59 428.08 172.71 429.03 171.11C429.77 169.89 429.24 168.31 429.48 166.9C430.19 162.6 435.48 161.65 440.48 160.31C437.539 156.023 433.605 152.511 429.013 150.074C424.422 147.636 419.309 146.345 414.11 146.31C396.03 146.31 381.36 161.69 381.36 180.67C381.334 185.648 382.371 190.574 384.401 195.12C386.43 199.666 389.406 203.726 393.13 207.03V207.03Z" fill="black"/>
<path id="Vector_101" d="M426.61 172.598C426.37 174.008 426.9 175.598 426.17 176.818C425.17 178.408 422.92 178.288 421.06 178.208C417.39 178.046 413.741 178.851 410.479 180.54C407.217 182.23 404.455 184.746 402.469 187.837C400.484 190.928 399.343 194.486 399.163 198.155C398.982 201.824 399.767 205.477 401.44 208.748C403.64 213.068 407.34 216.648 408.65 221.318C409.27 223.558 409.15 226.318 407.34 227.758C405.95 228.888 403.94 228.918 402.43 229.878C399.13 231.968 399.75 236.878 400.95 240.618C402.742 246.153 404.928 251.554 407.49 256.778C409.67 261.228 412.49 265.908 417.25 267.448C410.37 273.868 399.95 275.248 390.75 273.298C381.55 271.348 373.24 266.558 365.11 261.818C361.77 259.878 358.24 257.728 356.61 254.228C354.39 249.468 356.37 243.938 357.78 238.888C358.268 237.629 358.328 236.244 357.95 234.948C357.32 233.428 355.68 232.638 354.16 231.948C347.74 229.268 360.16 226.948 354.16 223.388C348.16 219.828 342.7 214.948 339.96 208.548C335.29 197.658 339.5 184.668 346.96 175.458C354.42 166.248 345.68 159.828 355.22 152.798C361.3 148.308 367.22 143.468 373.98 140.108C380.852 136.796 388.374 135.051 396.002 135.001C403.631 134.951 411.175 136.596 418.09 139.818C425.02 143.068 430.67 148.308 437.47 151.818C440.82 153.548 448.17 155.738 446.3 160.538C443.47 167.858 427.87 165.008 426.61 172.598Z" fill="#3F3D56"/>
</g>
<g id="Wheels">
<path id="Vector_102" d="M102.62 752.39C107.425 752.39 111.32 748.495 111.32 743.69C111.32 738.885 107.425 734.99 102.62 734.99C97.8151 734.99 93.92 738.885 93.92 743.69C93.92 748.495 97.8151 752.39 102.62 752.39Z" fill="#3F3D56"/>
<path id="Vector_103" d="M178.95 711.47C183.755 711.47 187.65 707.575 187.65 702.77C187.65 697.965 183.755 694.07 178.95 694.07C174.145 694.07 170.25 697.965 170.25 702.77C170.25 707.575 174.145 711.47 178.95 711.47Z" fill="#3F3D56"/>
</g>
<path id="Vector_104" d="M302.61 511.04C301.86 510.8 295.09 504.92 295.09 504.92C300.214 497.114 307.428 490.904 315.91 487C323.38 483.58 331.74 480.91 335.14 484C335.14 484 341.04 491.23 334.06 496.85L329.06 495.59C329.06 495.59 321.54 487.22 309.3 503.1L302.61 511.04Z" fill="#3F3D56"/>
<path id="Vector_105" d="M334.06 496.84L324.94 506.21L318.07 503.09L326.07 492.9L330.31 494.18L334.06 496.84Z" fill="#3F3D56"/>
<g id="suitcase">
<path id="Vector_106" d="M51.54 676.67C62.04 676.14 87.8 675.5 92.96 672.92C98.12 670.34 154.15 610.76 154.15 610.76L170.89 586.29L198.27 574.7L221.13 548.59L239.18 537.05C239.18 537.05 235.3 538.27 234.98 534.42C234.898 533.427 234.655 532.454 234.26 531.54C233.817 530.419 233.098 529.429 232.17 528.66C231.538 528.138 230.774 527.8 229.963 527.684C229.151 527.567 228.323 527.677 227.57 528C223.39 529.61 168.41 538.95 168.41 538.95C168.41 538.95 151.25 541.85 135.47 562.78C126.441 574.876 116.405 586.186 105.47 596.59L62.63 647.8C62.63 647.8 41.04 677.2 51.54 676.67Z" fill="#6C63FF"/>
<path id="Vector_107" d="M51.41 689.34L93.92 743.69L95.44 742.98L176.04 705.41L208.89 672.24C208.89 672.24 280.07 597.24 285.54 585.93C291.01 574.62 269.82 555.98 269.82 555.98C253.14 526.67 244 535.69 244 535.69L163.22 557.9H163.16L162.75 558.41C156.48 565.08 85.46 640.67 62.31 664.34L62.26 664.4C58.97 667.77 56.65 670.08 55.65 670.97C47.23 678.41 51.41 689.34 51.41 689.34Z" fill="#6C63FF"/>
<path id="Vector_108" opacity="0.1" d="M51.41 689.34L93.92 743.69L95.44 742.98C117.93 714.75 173.38 645.69 188.93 631.61C208.57 613.81 203.75 602.71 203.75 602.71L187 579.85C174.37 556.43 164.1 557.77 163.23 557.94H163.17L162.75 558.41L62.28 664.35L62.23 664.41C58.94 667.78 56.62 670.09 55.62 670.98C47.23 678.41 51.41 689.34 51.41 689.34Z" fill="black"/>
<path id="Vector_109" d="M245.93 555.05L238.84 548.93C238.84 548.93 222.75 545.41 209.22 561.17L214.05 566.97C214.05 566.97 226.28 552.8 245.93 555.05Z" fill="#3F3D56"/>
<path id="Vector_110" opacity="0.1" d="M245.93 555.05L238.84 548.93C238.84 548.93 222.75 545.41 209.22 561.17L214.05 566.97C214.05 566.97 226.28 552.8 245.93 555.05Z" fill="black"/>
<path id="Vector_111" d="M257.85 590.48L326.76 500.98L322.58 499.34L252.37 587.26L257.85 590.48Z" fill="#65617D"/>
<path id="Vector_112" d="M234.02 597.88L303.52 508.68L300.04 504.17L227.57 594.02L234.02 597.88Z" fill="#65617D"/>
<path id="Vector_113" opacity="0.1" d="M122.59 590.47C123.12 589.93 154.01 558.86 162.95 552.47C170.77 546.89 221.05 534.68 234.26 531.54C233.817 530.419 233.098 529.429 232.17 528.66C219.57 532.06 178.98 543 166.17 546.25C151.04 550.08 123.03 589.84 122.59 590.47Z" fill="black"/>
<path id="Vector_114" opacity="0.1" d="M236.92 537.67L163.37 557.13L51.54 676.67V673.24L161.23 556.49L236.92 537.67Z" fill="black"/>
</g>
<g id="leg2">
<path id="Vector_115" d="M287.75 729.28L289.9 749.03L300.41 755.25C300.41 755.25 310.08 756.33 308.36 747.74C308.203 746.819 308.15 745.883 308.2 744.95C308.63 734.46 318.02 712.32 318.02 712.32C318.02 712.32 327.02 688.49 334.55 681.18C341.11 674.82 367.44 634.62 374.05 624.47L375.56 622.14C380.508 617.382 385.984 613.205 391.88 609.69C401.11 604.32 403.26 591.69 402.88 589.94C402.5 588.19 404.16 571.94 404.16 571.94V530.68L377.74 527.86L353.92 525.31C353.92 525.31 354.45 529.97 355.13 535.9C356.28 545.7 357.9 558.97 358.43 560.31C359.3 562.46 361.23 575.31 361.23 575.31C361.23 575.31 359.72 581.1 358.65 586.47C357.58 591.84 343.65 606.66 343.65 606.66C325.83 621.47 308.01 673.85 308.01 673.85C303.32 683.99 298.01 685.71 295.25 685.85C294.631 685.898 294.009 685.841 293.41 685.68L289.54 692.77L287.75 729.28Z" fill="#FBBEBE"/>
<path id="Vector_116" d="M265.31 723.8L268.38 726L269.82 727L282.17 712.62C282.17 712.62 282.17 729.04 279.91 733.01C278.38 735.71 278.14 740.66 278.14 743.56C278.14 744.92 278.19 745.83 278.19 745.83C278.19 745.83 281.95 753.83 298.48 763.72C305.9 768.15 310.23 767.39 312.74 765.21C315.83 762.53 316.19 757.71 316.19 757.71L309.19 745.83C292.01 752.83 290.3 736.34 290.3 736.34L293.2 693.08C293.41 686.53 297.56 685.37 297.56 685.37C278.31 684.63 277.42 700.37 277.42 700.37L265.31 723.8Z" fill="#3F3D56"/>
</g>
</g>
<defs>
<filter id="filter0_d" x="0.321716" y="-0.00222778" width="945.157" height="646.269" filterUnits="userSpaceOnUse" color-interpolation-filters="sRGB">
<feFlood flood-opacity="0" result="BackgroundImageFix"/>
<feColorMatrix in="SourceAlpha" type="matrix" values="0 0 0 0 0 0 0 0 0 0 0 0 0 0 0 0 0 0 127 0"/>
<feOffset dy="4"/>
<feGaussianBlur stdDeviation="2"/>
<feColorMatrix type="matrix" values="0 0 0 0 0 0 0 0 0 0 0 0 0 0 0 0 0 0 0.25 0"/>
<feBlend mode="normal" in2="BackgroundImageFix" result="effect1_dropShadow"/>
<feBlend mode="normal" in="SourceGraphic" in2="effect1_dropShadow" result="shape"/>
</filter>
<linearGradient id="paint0_linear" x1="473" y1="28.5" x2="472.9" y2="638.267" gradientUnits="userSpaceOnUse">
<stop stop-color="#C758EE"/>
<stop offset="1" stop-color="#E21717" stop-opacity="0"/>
</linearGradient>
<clipPath id="clip0">
<rect width="941.51" height="824.82" fill="white"/>
</clipPath>
</defs>
</svg>
